<?xml version="1.0" encoding="utf-8"?>
<!-- Generator: Adobe Illustrator 24.0.1, SVG Export Plug-In . SVG Version: 6.00 Build 0)  -->
<svg version="1.1" id="Layer_1" xmlns="http://www.w3.org/2000/svg" xmlns:xlink="http://www.w3.org/1999/xlink" x="0px" y="0px"
	 viewBox="0 0 501.6 102.9" style="enable-background:new 0 0 501.6 102.9;" xml:space="preserve">
<style type="text/css">
	.st0{fill:#FFFFFF;}
</style>
<title>Asset 1</title>
<g id="Layer_2_1_">
	<g id="Layer_1-2">
		<path class="st0" d="M74,97.9c-4.5-0.8-9.5-1.7-14.5-2.6c-5.3-0.9-10.5-1.8-15.8-2.7c-1.2-0.2-2.5-0.5-3.8-0.7
			c-0.8-0.1-1.1-0.5-0.9-1.3c0.6-3.3,1.1-6.6,1.7-9.9c0.9-5.3,1.8-10.5,2.7-15.8c1-5.6,2-11.2,2.9-16.7c0.2-1.1,0.7-1.5,1.8-1.3
			c2.5,0.5,5,0.8,7.6,1.3L82.8,53c1.4,0.2,1.6,0.5,1.4,1.9c-0.3,2.2-0.8,4.4-1.1,6.6c-1.5,8.4-3,16.8-4.5,25.2
			c-0.6,3.1-1,6.3-1.6,9.4C76.6,98.2,76.5,98.1,74,97.9z M71.4,94c2.3,0.2,2.5-0.1,2.9-2.3c1.9-11.2,3.9-22.3,5.9-33.5
			c0.4-2,0.3-2.2-1.7-2.5c-3.9-0.7-7.8-1.4-11.8-2c-5.3-0.8-10.5-1.8-15.8-2.8c-1-0.2-1.5,0.1-1.7,1.1c-0.3,1.4-0.7,2.8-0.8,4.2
			c-0.7,5.4-1.8,10.7-2.8,16c-0.9,5.1-1.8,10.2-2.7,15.3c-0.2,1,0.2,1.5,1.2,1.7c1.2,0.2,2.3,0.6,3.5,0.8c5.4,0.7,10.7,1.8,16,2.8
			L71.4,94z"/>
		<path class="st0" d="M92.7,7.4c-0.7,3.9-1.3,7.5-1.9,11l-2.6,14.9c-1,5.5-1.9,11-2.9,16.5c-0.3,1.6-0.4,1.7-2.1,1.4
			c-5.4-1-10.8-1.9-16.2-2.9l-18-3.2c-2-0.3-2-0.3-1.6-2.3c1.6-8.6,3.2-17.1,4.7-25.7C53,12,53.8,6.9,54.6,1.7C55,0,55.2-0.2,57,0.1
			c6.5,1.2,13,2.4,19.6,3.5c4.8,0.8,9.6,1.7,14.4,2.5C92.5,6.4,92.8,6.6,92.7,7.4z M59.2,4c-1-0.1-1.5,0.5-1.6,1.4
			c-0.2,2.2-0.8,4.4-1.2,6.6c-0.8,5.4-1.9,10.7-2.8,16c-0.7,4.2-1.5,8.3-2.3,12.5c-0.2,1.1,0.1,1.7,1.2,2c0.4,0.1,0.8,0.2,1.2,0.2
			c9,1.6,17.9,3.1,26.9,4.8c1.1,0.2,1.7-0.1,1.9-1.2c0.6-3.3,1.3-6.6,1.9-9.9c0.9-5.1,1.8-10.2,2.7-15.3c0.6-3.4,1.2-6.8,1.7-10.1
			c0.2-1.4-0.1-1.7-1.4-1.9l-27.3-5L59.2,4z"/>
		<path class="st0" d="M45.2,42.9c-0.6,2.1-0.9,4.8-1.3,7.5c-0.8,4.8-1.7,9.6-2.5,14.4c-0.5,2.7-1,5.3-1.4,8
			c-0.5,3.4-1.4,6.7-1.7,10.1c-0.1,0.5-0.2,0.9-0.3,1.4c-0.5,2-0.5,2-2.6,1.6c-7.1-1.2-14.1-2.5-21.2-3.8C10,81.5,5.8,80.8,1.6,80
			c-1.8-0.3-1.8-0.3-1.5-2.2c2-10.9,3.8-21.8,5.7-32.7c0.5-2.8,1-5.7,1.4-8.5c0.3-1.7,0.4-1.9,2.2-1.6c2.4,0.3,4.7,0.8,7.1,1.2
			c6.8,1.2,13.5,2.5,20.3,3.7c2.3,0.4,4.7,0.8,7.1,1C44.9,41,45.4,41.4,45.2,42.9z M32.6,82c2.1,0.1,2.2,0,2.6-1.8
			c0.1-0.4,0.1-0.8,0.2-1.2c0.9-5,1.8-10,2.7-15.1c1.1-6.1,2.1-12.1,3.1-18.2c0.3-1.5,0.1-1.7-1.5-2c-1.9-0.4-3.8-0.6-5.7-1
			c-7.2-1.3-14.5-2.6-21.7-3.8c-1.8-0.3-1.9-0.3-2.2,1.5c-0.7,3.9-1.3,7.9-2,11.8C6.9,59,5.6,65.7,4.4,72.5
			c-0.8,4.5-0.7,4.8,3.9,5.4c6.9,1,13.7,2.4,20.5,3.5C30.1,81.7,31.3,81.9,32.6,82z"/>
		<polygon class="st0" points="114.4,45.2 102.3,45.2 93.1,102 101.4,102 108,54.5 114.8,102 123.7,102 		"/>
		<path class="st0" d="M130.8,102V53.3h-9.3v-8.1h27.6v8.1h-9.3V102H130.8z"/>
		<path class="st0" d="M153,102V45.2h8.9v48.7h14.7v8.1H153z"/>
		<path class="st0" d="M200,102l-1.5-11.1h-10.3l-1.5,11.1h-8.3l9.2-56.8h12.1l9.2,56.8H200z M193.7,35.6l-4.1,6.1h-6.7l6.6-11h8.4
			l6.6,11h-6.7L193.7,35.6z M189.3,83.2h8l-4.1-28.6L189.3,83.2z"/>
		<path class="st0" d="M212.8,102V45.2h11l9,34v-34h7.9V102h-9l-11-41.5V102H212.8z"/>
		<path class="st0" d="M254,102V53.3h-9.3v-8.1h27.6v8.1H263V102H254z"/>
		<path class="st0" d="M276.1,102V45.2h8.9V102H276.1z"/>
		<path class="st0" d="M290.6,58.3c0-8.8,4.6-14,13.1-14s13.1,5.1,13.1,14v6h-8.4v-6.6c0-3.5-1.5-5.3-4.5-5.3s-4.5,1.8-4.5,5.3v31.7
			c0,3.5,1.5,5.2,4.5,5.2s4.5-1.7,4.5-5.2v-8.3h8.4v7.6c0,8.8-4.6,14-13.1,14s-13.1-5.1-13.1-14V58.3z"/>
		<path class="st0" d="M341,102l-1.5-11.1h-10.3l-1.5,11.1h-8.3l9.2-56.8h12.1L350,102H341z M330.3,83.2h8l-4.1-28.6L330.3,83.2z"/>
		<path class="st0" d="M352.7,85.8h6v3.7c0,5,2.2,7.5,6.6,7.5c4.5,0,6.6-2.5,6.6-7.6c0-2.4-0.6-4.8-1.9-6.9c-1.2-2-3.5-4.4-6.8-7.1
			c-3.9-3.2-6.6-6.1-8.2-8.7c-1.5-2.7-2.3-5.7-2.3-8.8c0-8.5,4.6-13.5,12.7-13.5s12.5,5,12.5,13.7v2.3h-6v-2.7c0-5-2.2-7.5-6.5-7.5
			s-6.5,2.4-6.5,7.4c0,2.3,0.6,4.6,1.9,6.5c2,2.7,4.4,5,7.1,7c3.9,3.2,6.6,6.2,8,8.8c1.6,2.8,2.4,5.9,2.3,9.1
			c0,8.8-4.7,13.9-12.9,13.9s-12.6-5-12.6-13.8L352.7,85.8z"/>
		<path class="st0" d="M383.2,88.8V58.3c0-9,4.6-14,13-14s13.1,5,13.1,14v30.4c0,9-4.6,14-13.1,14S383.2,97.8,383.2,88.8z
			 M402.9,89.2V57.9c0-5.2-2.3-7.8-6.7-7.8s-6.6,2.6-6.6,7.8v31.2c0,5.3,2.2,7.9,6.6,7.9S402.9,94.4,402.9,89.2L402.9,89.2z"/>
		<path class="st0" d="M415.9,102V45.2h6.3v51h16.2v5.8H415.9z"/>
		<path class="st0" d="M464.2,102l-2.1-12.1H449l-2.1,12.1H441l10.5-56.8h8.5l10.6,56.8H464.2z M449.9,84.4h11.2l-5.7-32L449.9,84.4
			z"/>
		<path class="st0" d="M475.5,102V45.2h12.4c9,0,12.8,4,12.8,12.9v3.5c0,6.3-2.2,10.1-6.6,11.4v0.1c4.5,1.1,6.6,5.1,6.6,11.8V95
			c-0.1,2.3,0.2,4.7,0.8,6.9h-6.4c-0.6-2.3-0.8-4.6-0.7-6.9V84.6c0-6.1-2.1-8.3-7.5-8.3h-5.1V102H475.5z M481.8,70.6h5.1
			c5.1,0,7.5-2.3,7.5-7.8v-4.1c0-5.5-1.9-7.8-6.7-7.8h-5.9V70.6z"/>
	</g>
</g>
</svg>
