<svg xmlns="http://www.w3.org/2000/svg" viewBox="0 0 583.39 102.8"><defs><style>.cls-1{fill:#fff;}</style></defs><title>logo</title><g id="Layer_2" data-name="Layer 2"><g id="Layer_1-2" data-name="Layer 1"><path class="cls-1" d="M510.46,88.52V85.28h8.44v3.89c0,3.65,1.54,5.52,4.62,5.52s4.71-1.87,4.71-5.68a11.12,11.12,0,0,0-1.71-6.16,29.49,29.49,0,0,0-6.08-6.57,38.1,38.1,0,0,1-7.79-8.85,18.14,18.14,0,0,1-2.19-8.92c0-9,4.63-14.11,13.3-14.11s13,5.11,13,14.27V61h-8.43V58.11c0-3.74-1.46-5.6-4.46-5.6s-4.55,1.78-4.55,5.43A10.11,10.11,0,0,0,521,63.62a35.41,35.41,0,0,0,6.16,6.49c3.73,3.25,6.33,6.25,7.71,8.92a19.12,19.12,0,0,1,2.19,9.33c0,9.33-4.71,14.44-13.47,14.44S510.46,97.69,510.46,88.52Z"/><path class="cls-1" d="M560.59,102l-1.54-11.11h-10.3L547.21,102h-8.28l9.25-56.78h12.09L569.52,102Zm-10.7-18.82h8l-4.06-28.63Z"/><path class="cls-1" d="M574.47,102V93.07h8.92V102Z"/><path class="cls-1" d="M74,97.9c-4.48-.79-9.51-1.7-14.54-2.57-5.27-.92-10.55-1.8-15.83-2.72-1.25-.21-2.49-.51-3.75-.73-.79-.14-1.06-.52-.91-1.33.58-3.3,1.1-6.61,1.66-9.91Q42,72.75,43.33,64.85c1-5.58,2-11.15,2.93-16.74.19-1.14.73-1.47,1.81-1.28,2.51.45,5,.85,7.56,1.29l27.13,4.75c1.39.24,1.63.48,1.42,1.91-.32,2.21-.75,4.41-1.14,6.61-1.5,8.41-3,16.82-4.5,25.23-.55,3.14-1,6.31-1.57,9.45C76.59,98.16,76.52,98.14,74,97.9ZM71.41,94c2.33.15,2.52-.06,2.91-2.32q2.91-16.74,5.86-33.48c.36-2,.33-2.16-1.7-2.52-3.93-.71-7.85-1.44-11.8-2.05-5.28-.81-10.52-1.84-15.77-2.83-1-.2-1.51.07-1.7,1.06-.27,1.41-.66,2.8-.85,4.22-.72,5.38-1.83,10.7-2.75,16-.88,5.11-1.75,10.23-2.66,15.33-.19,1,.22,1.49,1.15,1.7,1.17.25,2.32.64,3.5.78,5.39.67,10.68,1.85,16,2.75Z"/><path class="cls-1" d="M92.74,7.45c-.69,3.92-1.31,7.45-1.92,11L88.24,33.31q-1.44,8.27-2.91,16.52c-.3,1.64-.42,1.72-2.08,1.43C77.82,50.31,72.4,49.33,67,48.37L49.05,45.21c-2-.35-2-.33-1.59-2.29,1.58-8.56,3.2-17.11,4.73-25.67C53.11,12.14,53.88,7,54.71,1.87,55,0,55.23-.2,57,.12c6.53,1.16,13,2.38,19.57,3.53C81.4,4.5,86.21,5.31,91,6.11,92.52,6.37,92.82,6.64,92.74,7.45ZM59.18,4c-1-.12-1.49.46-1.59,1.37-.25,2.23-.85,4.39-1.17,6.6-.79,5.37-1.86,10.69-2.79,16-.73,4.17-1.46,8.34-2.26,12.49-.21,1.1.11,1.69,1.16,2,.38.09.78.16,1.17.23,9,1.58,17.92,3.14,26.87,4.75,1.12.21,1.66-.06,1.86-1.17.61-3.3,1.27-6.58,1.86-9.89.91-5.1,1.77-10.22,2.65-15.33.59-3.38,1.19-6.76,1.73-10.15.21-1.38-.06-1.68-1.43-1.93L60.13,4.09Z"/><path class="cls-1" d="M45.23,42.89c-.58,2.12-.9,4.82-1.35,7.5-.81,4.79-1.66,9.57-2.5,14.36-.47,2.67-1,5.34-1.4,8-.55,3.38-1.4,6.72-1.73,10.14a7.63,7.63,0,0,1-.31,1.4c-.51,2-.52,2-2.58,1.64-7.08-1.24-14.15-2.51-21.23-3.75C10,81.46,5.8,80.76,1.63,80c-1.79-.31-1.79-.32-1.47-2.15Q3,61.48,5.81,45.07c.48-2.83,1-5.67,1.44-8.5.29-1.71.44-1.88,2.19-1.62,2.37.35,4.72.78,7.08,1.21,6.76,1.22,13.51,2.46,20.27,3.66,2.35.41,4.72.75,7.1,1C44.87,41,45.37,41.36,45.23,42.89ZM32.58,82c2.11.13,2.24,0,2.6-1.83.07-.39.1-.79.17-1.19Q36.69,71.47,38,63.92q1.59-9.08,3.14-18.17c.26-1.55.13-1.71-1.51-2-1.88-.37-3.78-.64-5.67-1-7.23-1.27-14.45-2.56-21.68-3.82-1.8-.32-1.87-.3-2.19,1.51-.72,3.92-1.34,7.86-2,11.79C6.87,59,5.63,65.72,4.42,72.48c-.81,4.53-.66,4.81,3.87,5.43,6.88,1,13.68,2.37,20.54,3.48A19.06,19.06,0,0,0,32.58,82Z"/><polygon class="cls-1" points="114.43 45.21 102.34 45.21 93.09 101.99 101.37 101.99 108.02 54.54 114.75 101.99 123.67 101.99 114.43 45.21"/><path class="cls-1" d="M130.81,102V53.32h-9.32V45.21h27.58v8.11h-9.33V102Z"/><path class="cls-1" d="M153,102V45.21h8.92V93.88h14.69V102Z"/><path class="cls-1" d="M200,102l-1.54-11.11h-10.3L186.63,102h-8.28l9.25-56.78h12.08L208.93,102Zm-6.33-66.35-4.13,6.08h-6.74l6.65-10.95h8.44l6.65,11h-6.73ZM189.3,83.17h8l-4.05-28.63Z"/><path class="cls-1" d="M212.75,102V45.21h11l9,34v-34h7.95V102h-9l-11-41.45V102Z"/><path class="cls-1" d="M254,102V53.32h-9.33V45.21h27.58v8.11h-9.33V102Z"/><path class="cls-1" d="M276.1,102V45.21H285V102Z"/><path class="cls-1" d="M290.62,58.35c0-8.84,4.63-14,13.14-14s13.14,5.11,13.14,14v6h-8.43V57.78c0-3.49-1.46-5.27-4.46-5.27s-4.47,1.78-4.47,5.27V89.5c0,3.49,1.46,5.19,4.47,5.19s4.46-1.7,4.46-5.19V81.22h8.43v7.63c0,8.84-4.62,14-13.14,14s-13.14-5.11-13.14-14Z"/><path class="cls-1" d="M341,102l-1.54-11.11H329.15L327.61,102h-8.27l9.25-56.78h12.08L349.92,102ZM330.29,83.17h8l-4.06-28.63Z"/><path class="cls-1" d="M352.68,85.85h6V89.5q0,7.55,6.57,7.54c4.46,0,6.65-2.51,6.65-7.62a12.52,12.52,0,0,0-1.94-6.9c-1.22-2-3.49-4.38-6.82-7.14-3.89-3.16-6.65-6.08-8.19-8.68a16.78,16.78,0,0,1-2.27-8.76c0-8.51,4.62-13.54,12.73-13.54s12.5,5,12.5,13.71v2.27h-6V57.7c0-5-2.19-7.54-6.49-7.54s-6.48,2.43-6.48,7.38A11.25,11.25,0,0,0,360.87,64a35.46,35.46,0,0,0,7.06,7c3.89,3.25,6.57,6.17,8,8.84a17.41,17.41,0,0,1,2.27,9.09c0,8.84-4.7,13.87-12.9,13.87s-12.65-5-12.65-13.79Z"/><path class="cls-1" d="M383.18,88.77V58.35c0-9,4.62-14,13-14s13.06,5,13.06,14V88.77c0,9-4.63,14-13.06,14S383.18,97.77,383.18,88.77Zm19.71.4V57.94c0-5.19-2.27-7.78-6.73-7.78s-6.65,2.59-6.65,7.78V89.17c0,5.28,2.19,7.87,6.65,7.87S402.89,94.45,402.89,89.17Z"/><path class="cls-1" d="M415.87,102V45.21h6.33v51h16.22V102Z"/><path class="cls-1" d="M464.22,102,462.11,89.9H449L446.86,102h-5.92l10.54-56.78H460L470.63,102Zm-14.28-17.6h11.2l-5.68-32Z"/><path class="cls-1" d="M475.5,102V45.21h12.41c9,0,12.81,4,12.81,12.9v3.48q0,9.38-6.57,11.44v.08c4.46,1.14,6.65,5.11,6.65,11.85V95.09a21.43,21.43,0,0,0,.81,6.9h-6.4a24.93,24.93,0,0,1-.73-6.9V84.63c0-6.08-2.11-8.27-7.55-8.27h-5.11V102Zm6.32-31.39h5.11c5.11,0,7.47-2.27,7.47-7.79V58.76c0-5.52-1.87-7.79-6.66-7.79h-5.92Z"/></g></g></svg>